<?xml version="1.0" encoding="utf-8"?>
<svg id="Layer_1" style="enable-background:new 0 0 512 512;" version="1.1" viewBox="0 0 559 512" xmlns="http://www.w3.org/2000/svg" xmlns:bx="https://boxy-svg.com">
  <style type="text/css">
	.st0{fill:#E93F33;}
</style>
  <g>
    <path class="st0" d="M 185.249 254.413 C 185.131 273.113 185.249 291.929 185.366 310.63 C 217.396 311.668 249.544 311.206 281.574 311.668 C 267.443 381.392 170.647 404.018 119.54 358.42 C 66.902 318.479 69.377 230.862 124.133 193.808 C 162.403 163.91 216.808 171.299 255.079 197.155 C 270.151 183.534 284.164 168.989 297.705 153.867 C 265.912 128.932 226.816 111.271 185.249 113.118 C 98.58 110.232 18.857 184.688 17.445 269.765 C 11.911 339.258 58.542 407.365 124.368 431.953 C 189.959 456.657 274.036 439.803 315.842 382.085 C 343.513 345.607 349.401 298.624 346.221 254.528 C 292.525 254.181 238.828 254.296 185.249 254.413 Z" style="fill: rgb(167, 197, 167);"/>
    <path class="st0" d="M 479.081 244.337 C 478.959 227.725 478.837 211.112 478.715 194.5 C 462.117 194.5 445.64 194.5 429.163 194.5 C 429.041 211.112 428.796 227.725 428.796 244.337 C 412.197 244.459 395.599 244.459 379 244.704 C 379 261.316 379 277.806 379 294.296 C 395.599 294.419 412.197 294.663 428.796 294.785 C 428.919 311.397 428.919 328.01 429.163 344.5 C 445.762 344.5 462.238 344.5 478.837 344.5 C 478.959 327.888 478.959 311.275 479.204 294.663 C 495.803 294.541 512.401 294.419 529 294.296 C 529 277.806 529 261.194 529 244.704 C 512.28 244.581 495.681 244.581 479.081 244.337 Z" style="fill: rgb(167, 197, 167);" bx:origin="0.638667 0.5"/>
  </g>
</svg>