<?xml version="1.0" encoding="utf-8"?>
<svg height="512px" id="LinkedIn_alt" style="enable-background:new 0 0 512 512;" version="1.1" viewBox="0 0 512 512" width="512px" xmlns="http://www.w3.org/2000/svg">
  <path d="M51.326,185.85h90.011v270.872H51.326V185.85z M96.934,55.278C66.127,55.278,46,75.503,46,102.049  c0,26,19.538,46.813,49.756,46.813h0.574c31.396,0,50.948-20.814,50.948-46.813C146.689,75.503,127.727,55.278,96.934,55.278z   M362.339,179.487c-47.779,0-69.184,26.28-81.125,44.71V185.85h-90.038c1.192,25.411,0,270.872,0,270.872h90.038V305.448  c0-8.102,0.589-16.174,2.958-21.978c6.519-16.174,21.333-32.923,46.182-32.923c32.602,0,45.622,24.851,45.622,61.248v144.926H466  V301.398C466,218.199,421.598,179.487,362.339,179.487z" style="fill: rgb(167, 197, 167);"/>
</svg>